<svg aria-roledescription="er" role="graphics-document document" viewBox="0 0 692.4964599609375 753.046875" height="753.046875" xmlns="http://www.w3.org/2000/svg" width="692.4964599609375" id="tmpMermaidElement9422"><style>#tmpMermaidElement {background: white;}#tmpMermaidElement9422{font-family:"trebuchet ms",verdana,arial,sans-serif;font-size:16px;fill:#000000;}#tmpMermaidElement9422 .error-icon{fill:#552222;}#tmpMermaidElement9422 .error-text{fill:#552222;stroke:#552222;}#tmpMermaidElement9422 .edge-thickness-normal{stroke-width:2px;}#tmpMermaidElement9422 .edge-thickness-thick{stroke-width:3.5px;}#tmpMermaidElement9422 .edge-pattern-solid{stroke-dasharray:0;}#tmpMermaidElement9422 .edge-pattern-dashed{stroke-dasharray:3;}#tmpMermaidElement9422 .edge-pattern-dotted{stroke-dasharray:2;}#tmpMermaidElement9422 .marker{fill:#666;stroke:#666;}#tmpMermaidElement9422 .marker.cross{stroke:#666;}#tmpMermaidElement9422 svg{font-family:"trebuchet ms",verdana,arial,sans-serif;font-size:16px;}#tmpMermaidElement9422 .entityBox{fill:#eee;stroke:#999;}#tmpMermaidElement9422 .attributeBoxOdd{fill:#ffffff;stroke:#999;}#tmpMermaidElement9422 .attributeBoxEven{fill:#f2f2f2;stroke:#999;}#tmpMermaidElement9422 .relationshipLabelBox{fill:hsl(-160, 0%, 93.3333333333%);opacity:0.7;background-color:hsl(-160, 0%, 93.3333333333%);}#tmpMermaidElement9422 .relationshipLabelBox rect{opacity:0.5;}#tmpMermaidElement9422 .relationshipLine{stroke:#666;}#tmpMermaidElement9422 .entityTitleText{text-anchor:middle;font-size:18px;fill:#000000;}#tmpMermaidElement9422 #MD_PARENT_START{fill:#f5f5f5!important;stroke:#666!important;stroke-width:1;}#tmpMermaidElement9422 #MD_PARENT_END{fill:#f5f5f5!important;stroke:#666!important;stroke-width:1;}#tmpMermaidElement9422 :root{--mermaid-font-family:"trebuchet ms",verdana,arial,sans-serif;}</style><g></g><defs><marker orient="auto" markerHeight="240" markerWidth="190" refY="7" refX="0" id="MD_PARENT_START"><path d="M 18,7 L9,13 L1,7 L9,1 Z"></path></marker></defs><defs><marker orient="auto" markerHeight="28" markerWidth="20" refY="7" refX="19" id="MD_PARENT_END"><path d="M 18,7 L9,13 L1,7 L9,1 Z"></path></marker></defs><defs><marker orient="auto" markerHeight="18" markerWidth="18" refY="9" refX="0" id="ONLY_ONE_START"><path d="M9,0 L9,18 M15,0 L15,18" fill="none" stroke="gray"></path></marker></defs><defs><marker orient="auto" markerHeight="18" markerWidth="18" refY="9" refX="18" id="ONLY_ONE_END"><path d="M3,0 L3,18 M9,0 L9,18" fill="none" stroke="gray"></path></marker></defs><defs><marker orient="auto" markerHeight="18" markerWidth="30" refY="9" refX="0" id="ZERO_OR_ONE_START"><circle r="6" cy="9" cx="21" fill="white" stroke="gray"></circle><path d="M9,0 L9,18" fill="none" stroke="gray"></path></marker></defs><defs><marker orient="auto" markerHeight="18" markerWidth="30" refY="9" refX="30" id="ZERO_OR_ONE_END"><circle r="6" cy="9" cx="9" fill="white" stroke="gray"></circle><path d="M21,0 L21,18" fill="none" stroke="gray"></path></marker></defs><defs><marker orient="auto" markerHeight="36" markerWidth="45" refY="18" refX="18" id="ONE_OR_MORE_START"><path d="M0,18 Q 18,0 36,18 Q 18,36 0,18 M42,9 L42,27" fill="none" stroke="gray"></path></marker></defs><defs><marker orient="auto" markerHeight="36" markerWidth="45" refY="18" refX="27" id="ONE_OR_MORE_END"><path d="M3,9 L3,27 M9,18 Q27,0 45,18 Q27,36 9,18" fill="none" stroke="gray"></path></marker></defs><defs><marker orient="auto" markerHeight="36" markerWidth="57" refY="18" refX="18" id="ZERO_OR_MORE_START"><circle r="6" cy="18" cx="48" fill="white" stroke="gray"></circle><path d="M0,18 Q18,0 36,18 Q18,36 0,18" fill="none" stroke="gray"></path></marker></defs><defs><marker orient="auto" markerHeight="36" markerWidth="57" refY="18" refX="39" id="ZERO_OR_MORE_END"><circle r="6" cy="18" cx="9" fill="white" stroke="gray"></circle><path d="M21,18 Q39,0 57,18 Q39,36 21,18" fill="none" stroke="gray"></path></marker></defs><path style="stroke: gray; fill: none;" marker-start="url(#ONLY_ONE_START)" marker-end="url(#ZERO_OR_MORE_END)" d="M270.731,159.454L240.875,177.048C211.019,194.641,151.307,229.828,121.452,257.755C91.596,285.682,91.596,306.349,91.596,316.682L91.596,327.016" class="er relationshipLine"></path><path style="stroke: gray; fill: none;" marker-start="url(#ONLY_ONE_START)" marker-end="url(#ZERO_OR_MORE_END)" d="M341.912,215.016L341.912,223.349C341.912,231.682,341.912,248.349,341.912,265.016C341.912,281.682,341.912,298.349,341.912,306.682L341.912,315.016" class="er relationshipLine"></path><path style="stroke: gray; fill: none;" marker-start="url(#ONLY_ONE_START)" marker-end="url(#ZERO_OR_MORE_END)" d="M341.912,486.031L341.912,494.365C341.912,502.698,341.912,519.365,341.912,536.031C341.912,552.698,341.912,569.365,341.912,577.698L341.912,586.031" class="er relationshipLine"></path><path style="stroke: gray; fill: none;" marker-start="url(#ONLY_ONE_START)" marker-end="url(#ZERO_OR_MORE_END)" d="M413.094,158.74L443.672,176.453C474.251,194.165,535.408,229.59,565.986,257.636C596.565,285.682,596.565,306.349,596.565,316.682L596.565,327.016" class="er relationshipLine"></path><g transform="translate(270.7305908203125,20 )" id="entity-USER-6e7e2962-0c6f-577d-a7fd-2ce3a0cfd2c8"><rect height="195.015625" width="142.3634033203125" y="0" x="0" class="er entityBox"></rect><text style="dominant-baseline: middle; text-anchor: middle; font-size: 12px;" transform="translate(71.18170166015625,13.5078125)" y="0" x="0" id="text-entity-USER-6e7e2962-0c6f-577d-a7fd-2ce3a0cfd2c8" class="er entityLabel">USER</text><rect height="24" width="37.4693603515625" y="27.015625" x="0" class="er attributeBoxOdd"></rect><text style="dominant-baseline: middle; font-size: 10.2px;" transform="translate(5,39.015625)" y="0" x="0" id="text-entity-USER-6e7e2962-0c6f-577d-a7fd-2ce3a0cfd2c8-attr-1-type" class="er entityLabel">string</text><rect height="24" width="81.765625" y="27.015625" x="37.4693603515625" class="er attributeBoxOdd"></rect><text style="dominant-baseline: middle; font-size: 10.2px;" transform="translate(42.4693603515625,39.015625)" y="0" x="0" id="text-entity-USER-6e7e2962-0c6f-577d-a7fd-2ce3a0cfd2c8-attr-1-name" class="er entityLabel">UserID</text><rect height="24" width="23.12841796875" y="27.015625" x="119.2349853515625" class="er attributeBoxOdd"></rect><text style="dominant-baseline: middle; font-size: 10.2px;" transform="translate(124.2349853515625,39.015625)" y="0" x="0" id="text-entity-USER-6e7e2962-0c6f-577d-a7fd-2ce3a0cfd2c8-attr-1-key" class="er entityLabel">PK</text><rect height="24" width="37.4693603515625" y="51.015625" x="0" class="er attributeBoxEven"></rect><text style="dominant-baseline: middle; font-size: 10.2px;" transform="translate(5,63.015625)" y="0" x="0" id="text-entity-USER-6e7e2962-0c6f-577d-a7fd-2ce3a0cfd2c8-attr-2-type" class="er entityLabel">string</text><rect height="24" width="81.765625" y="51.015625" x="37.4693603515625" class="er attributeBoxEven"></rect><text style="dominant-baseline: middle; font-size: 10.2px;" transform="translate(42.4693603515625,63.015625)" y="0" x="0" id="text-entity-USER-6e7e2962-0c6f-577d-a7fd-2ce3a0cfd2c8-attr-2-name" class="er entityLabel">Nama</text><rect height="24" width="23.12841796875" y="51.015625" x="119.2349853515625" class="er attributeBoxEven"></rect><text style="dominant-baseline: middle; font-size: 10.2px;" transform="translate(124.2349853515625,63.015625)" y="0" x="0" id="text-entity-USER-6e7e2962-0c6f-577d-a7fd-2ce3a0cfd2c8-attr-2-key" class="er entityLabel"></text><rect height="24" width="37.4693603515625" y="75.015625" x="0" class="er attributeBoxOdd"></rect><text style="dominant-baseline: middle; font-size: 10.2px;" transform="translate(5,87.015625)" y="0" x="0" id="text-entity-USER-6e7e2962-0c6f-577d-a7fd-2ce3a0cfd2c8-attr-3-type" class="er entityLabel">string</text><rect height="24" width="81.765625" y="75.015625" x="37.4693603515625" class="er attributeBoxOdd"></rect><text style="dominant-baseline: middle; font-size: 10.2px;" transform="translate(42.4693603515625,87.015625)" y="0" x="0" id="text-entity-USER-6e7e2962-0c6f-577d-a7fd-2ce3a0cfd2c8-attr-3-name" class="er entityLabel">Email</text><rect height="24" width="23.12841796875" y="75.015625" x="119.2349853515625" class="er attributeBoxOdd"></rect><text style="dominant-baseline: middle; font-size: 10.2px;" transform="translate(124.2349853515625,87.015625)" y="0" x="0" id="text-entity-USER-6e7e2962-0c6f-577d-a7fd-2ce3a0cfd2c8-attr-3-key" class="er entityLabel"></text><rect height="24" width="37.4693603515625" y="99.015625" x="0" class="er attributeBoxEven"></rect><text style="dominant-baseline: middle; font-size: 10.2px;" transform="translate(5,111.015625)" y="0" x="0" id="text-entity-USER-6e7e2962-0c6f-577d-a7fd-2ce3a0cfd2c8-attr-4-type" class="er entityLabel">string</text><rect height="24" width="81.765625" y="99.015625" x="37.4693603515625" class="er attributeBoxEven"></rect><text style="dominant-baseline: middle; font-size: 10.2px;" transform="translate(42.4693603515625,111.015625)" y="0" x="0" id="text-entity-USER-6e7e2962-0c6f-577d-a7fd-2ce3a0cfd2c8-attr-4-name" class="er entityLabel">NomorTelepon</text><rect height="24" width="23.12841796875" y="99.015625" x="119.2349853515625" class="er attributeBoxEven"></rect><text style="dominant-baseline: middle; font-size: 10.2px;" transform="translate(124.2349853515625,111.015625)" y="0" x="0" id="text-entity-USER-6e7e2962-0c6f-577d-a7fd-2ce3a0cfd2c8-attr-4-key" class="er entityLabel"></text><rect height="24" width="37.4693603515625" y="123.015625" x="0" class="er attributeBoxOdd"></rect><text style="dominant-baseline: middle; font-size: 10.2px;" transform="translate(5,135.015625)" y="0" x="0" id="text-entity-USER-6e7e2962-0c6f-577d-a7fd-2ce3a0cfd2c8-attr-5-type" class="er entityLabel">string</text><rect height="24" width="81.765625" y="123.015625" x="37.4693603515625" class="er attributeBoxOdd"></rect><text style="dominant-baseline: middle; font-size: 10.2px;" transform="translate(42.4693603515625,135.015625)" y="0" x="0" id="text-entity-USER-6e7e2962-0c6f-577d-a7fd-2ce3a0cfd2c8-attr-5-name" class="er entityLabel">Password</text><rect height="24" width="23.12841796875" y="123.015625" x="119.2349853515625" class="er attributeBoxOdd"></rect><text style="dominant-baseline: middle; font-size: 10.2px;" transform="translate(124.2349853515625,135.015625)" y="0" x="0" id="text-entity-USER-6e7e2962-0c6f-577d-a7fd-2ce3a0cfd2c8-attr-5-key" class="er entityLabel"></text><rect height="24" width="37.4693603515625" y="147.015625" x="0" class="er attributeBoxEven"></rect><text style="dominant-baseline: middle; font-size: 10.2px;" transform="translate(5,159.015625)" y="0" x="0" id="text-entity-USER-6e7e2962-0c6f-577d-a7fd-2ce3a0cfd2c8-attr-6-type" class="er entityLabel">string</text><rect height="24" width="81.765625" y="147.015625" x="37.4693603515625" class="er attributeBoxEven"></rect><text style="dominant-baseline: middle; font-size: 10.2px;" transform="translate(42.4693603515625,159.015625)" y="0" x="0" id="text-entity-USER-6e7e2962-0c6f-577d-a7fd-2ce3a0cfd2c8-attr-6-name" class="er entityLabel">Foto</text><rect height="24" width="23.12841796875" y="147.015625" x="119.2349853515625" class="er attributeBoxEven"></rect><text style="dominant-baseline: middle; font-size: 10.2px;" transform="translate(124.2349853515625,159.015625)" y="0" x="0" id="text-entity-USER-6e7e2962-0c6f-577d-a7fd-2ce3a0cfd2c8-attr-6-key" class="er entityLabel"></text><rect height="24" width="37.4693603515625" y="171.015625" x="0" class="er attributeBoxOdd"></rect><text style="dominant-baseline: middle; font-size: 10.2px;" transform="translate(5,183.015625)" y="0" x="0" id="text-entity-USER-6e7e2962-0c6f-577d-a7fd-2ce3a0cfd2c8-attr-7-type" class="er entityLabel">string</text><rect height="24" width="81.765625" y="171.015625" x="37.4693603515625" class="er attributeBoxOdd"></rect><text style="dominant-baseline: middle; font-size: 10.2px;" transform="translate(42.4693603515625,183.015625)" y="0" x="0" id="text-entity-USER-6e7e2962-0c6f-577d-a7fd-2ce3a0cfd2c8-attr-7-name" class="er entityLabel">NomorKTP</text><rect height="24" width="23.12841796875" y="171.015625" x="119.2349853515625" class="er attributeBoxOdd"></rect><text style="dominant-baseline: middle; font-size: 10.2px;" transform="translate(124.2349853515625,183.015625)" y="0" x="0" id="text-entity-USER-6e7e2962-0c6f-577d-a7fd-2ce3a0cfd2c8-attr-7-key" class="er entityLabel"></text></g><g transform="translate(20,327.015625 )" id="entity-KYC-fb68b46b-097f-55ca-8c38-a8cc8d07b7ff"><rect height="147.015625" width="143.1915283203125" y="0" x="0" class="er entityBox"></rect><text style="dominant-baseline: middle; text-anchor: middle; font-size: 12px;" transform="translate(71.59576416015625,13.5078125)" y="0" x="0" id="text-entity-KYC-fb68b46b-097f-55ca-8c38-a8cc8d07b7ff" class="er entityLabel">KYC</text><rect height="24" width="37.4693603515625" y="27.015625" x="0" class="er attributeBoxOdd"></rect><text style="dominant-baseline: middle; font-size: 10.2px;" transform="translate(5,39.015625)" y="0" x="0" id="text-entity-KYC-fb68b46b-097f-55ca-8c38-a8cc8d07b7ff-attr-1-type" class="er entityLabel">string</text><rect height="24" width="82.59375" y="27.015625" x="37.4693603515625" class="er attributeBoxOdd"></rect><text style="dominant-baseline: middle; font-size: 10.2px;" transform="translate(42.4693603515625,39.015625)" y="0" x="0" id="text-entity-KYC-fb68b46b-097f-55ca-8c38-a8cc8d07b7ff-attr-1-name" class="er entityLabel">KYCID</text><rect height="24" width="23.12841796875" y="27.015625" x="120.0631103515625" class="er attributeBoxOdd"></rect><text style="dominant-baseline: middle; font-size: 10.2px;" transform="translate(125.0631103515625,39.015625)" y="0" x="0" id="text-entity-KYC-fb68b46b-097f-55ca-8c38-a8cc8d07b7ff-attr-1-key" class="er entityLabel">PK</text><rect height="24" width="37.4693603515625" y="51.015625" x="0" class="er attributeBoxEven"></rect><text style="dominant-baseline: middle; font-size: 10.2px;" transform="translate(5,63.015625)" y="0" x="0" id="text-entity-KYC-fb68b46b-097f-55ca-8c38-a8cc8d07b7ff-attr-2-type" class="er entityLabel">string</text><rect height="24" width="82.59375" y="51.015625" x="37.4693603515625" class="er attributeBoxEven"></rect><text style="dominant-baseline: middle; font-size: 10.2px;" transform="translate(42.4693603515625,63.015625)" y="0" x="0" id="text-entity-KYC-fb68b46b-097f-55ca-8c38-a8cc8d07b7ff-attr-2-name" class="er entityLabel">UserID</text><rect height="24" width="23.12841796875" y="51.015625" x="120.0631103515625" class="er attributeBoxEven"></rect><text style="dominant-baseline: middle; font-size: 10.2px;" transform="translate(125.0631103515625,63.015625)" y="0" x="0" id="text-entity-KYC-fb68b46b-097f-55ca-8c38-a8cc8d07b7ff-attr-2-key" class="er entityLabel">FK</text><rect height="24" width="37.4693603515625" y="75.015625" x="0" class="er attributeBoxOdd"></rect><text style="dominant-baseline: middle; font-size: 10.2px;" transform="translate(5,87.015625)" y="0" x="0" id="text-entity-KYC-fb68b46b-097f-55ca-8c38-a8cc8d07b7ff-attr-3-type" class="er entityLabel">string</text><rect height="24" width="82.59375" y="75.015625" x="37.4693603515625" class="er attributeBoxOdd"></rect><text style="dominant-baseline: middle; font-size: 10.2px;" transform="translate(42.4693603515625,87.015625)" y="0" x="0" id="text-entity-KYC-fb68b46b-097f-55ca-8c38-a8cc8d07b7ff-attr-3-name" class="er entityLabel">DokumenKYC</text><rect height="24" width="23.12841796875" y="75.015625" x="120.0631103515625" class="er attributeBoxOdd"></rect><text style="dominant-baseline: middle; font-size: 10.2px;" transform="translate(125.0631103515625,87.015625)" y="0" x="0" id="text-entity-KYC-fb68b46b-097f-55ca-8c38-a8cc8d07b7ff-attr-3-key" class="er entityLabel"></text><rect height="24" width="37.4693603515625" y="99.015625" x="0" class="er attributeBoxEven"></rect><text style="dominant-baseline: middle; font-size: 10.2px;" transform="translate(5,111.015625)" y="0" x="0" id="text-entity-KYC-fb68b46b-097f-55ca-8c38-a8cc8d07b7ff-attr-4-type" class="er entityLabel">string</text><rect height="24" width="82.59375" y="99.015625" x="37.4693603515625" class="er attributeBoxEven"></rect><text style="dominant-baseline: middle; font-size: 10.2px;" transform="translate(42.4693603515625,111.015625)" y="0" x="0" id="text-entity-KYC-fb68b46b-097f-55ca-8c38-a8cc8d07b7ff-attr-4-name" class="er entityLabel">StatusVerifikasi</text><rect height="24" width="23.12841796875" y="99.015625" x="120.0631103515625" class="er attributeBoxEven"></rect><text style="dominant-baseline: middle; font-size: 10.2px;" transform="translate(125.0631103515625,111.015625)" y="0" x="0" id="text-entity-KYC-fb68b46b-097f-55ca-8c38-a8cc8d07b7ff-attr-4-key" class="er entityLabel"></text><rect height="24" width="37.4693603515625" y="123.015625" x="0" class="er attributeBoxOdd"></rect><text style="dominant-baseline: middle; font-size: 10.2px;" transform="translate(5,135.015625)" y="0" x="0" id="text-entity-KYC-fb68b46b-097f-55ca-8c38-a8cc8d07b7ff-attr-5-type" class="er entityLabel">float</text><rect height="24" width="82.59375" y="123.015625" x="37.4693603515625" class="er attributeBoxOdd"></rect><text style="dominant-baseline: middle; font-size: 10.2px;" transform="translate(42.4693603515625,135.015625)" y="0" x="0" id="text-entity-KYC-fb68b46b-097f-55ca-8c38-a8cc8d07b7ff-attr-5-name" class="er entityLabel">LimitPinjaman</text><rect height="24" width="23.12841796875" y="123.015625" x="120.0631103515625" class="er attributeBoxOdd"></rect><text style="dominant-baseline: middle; font-size: 10.2px;" transform="translate(125.0631103515625,135.015625)" y="0" x="0" id="text-entity-KYC-fb68b46b-097f-55ca-8c38-a8cc8d07b7ff-attr-5-key" class="er entityLabel"></text></g><g transform="translate(263.1915283203125,315.015625 )" id="entity-LOAN-d7d358ec-057c-581e-be1f-23c7d50b1556"><rect height="171.015625" width="157.4415283203125" y="0" x="0" class="er entityBox"></rect><text style="dominant-baseline: middle; text-anchor: middle; font-size: 12px;" transform="translate(78.72076416015625,13.5078125)" y="0" x="0" id="text-entity-LOAN-d7d358ec-057c-581e-be1f-23c7d50b1556" class="er entityLabel">LOAN</text><rect height="24" width="37.4693603515625" y="27.015625" x="0" class="er attributeBoxOdd"></rect><text style="dominant-baseline: middle; font-size: 10.2px;" transform="translate(5,39.015625)" y="0" x="0" id="text-entity-LOAN-d7d358ec-057c-581e-be1f-23c7d50b1556-attr-1-type" class="er entityLabel">string</text><rect height="24" width="96.84375" y="27.015625" x="37.4693603515625" class="er attributeBoxOdd"></rect><text style="dominant-baseline: middle; font-size: 10.2px;" transform="translate(42.4693603515625,39.015625)" y="0" x="0" id="text-entity-LOAN-d7d358ec-057c-581e-be1f-23c7d50b1556-attr-1-name" class="er entityLabel">LoanID</text><rect height="24" width="23.12841796875" y="27.015625" x="134.3131103515625" class="er attributeBoxOdd"></rect><text style="dominant-baseline: middle; font-size: 10.2px;" transform="translate(139.3131103515625,39.015625)" y="0" x="0" id="text-entity-LOAN-d7d358ec-057c-581e-be1f-23c7d50b1556-attr-1-key" class="er entityLabel">PK</text><rect height="24" width="37.4693603515625" y="51.015625" x="0" class="er attributeBoxEven"></rect><text style="dominant-baseline: middle; font-size: 10.2px;" transform="translate(5,63.015625)" y="0" x="0" id="text-entity-LOAN-d7d358ec-057c-581e-be1f-23c7d50b1556-attr-2-type" class="er entityLabel">string</text><rect height="24" width="96.84375" y="51.015625" x="37.4693603515625" class="er attributeBoxEven"></rect><text style="dominant-baseline: middle; font-size: 10.2px;" transform="translate(42.4693603515625,63.015625)" y="0" x="0" id="text-entity-LOAN-d7d358ec-057c-581e-be1f-23c7d50b1556-attr-2-name" class="er entityLabel">UserID</text><rect height="24" width="23.12841796875" y="51.015625" x="134.3131103515625" class="er attributeBoxEven"></rect><text style="dominant-baseline: middle; font-size: 10.2px;" transform="translate(139.3131103515625,63.015625)" y="0" x="0" id="text-entity-LOAN-d7d358ec-057c-581e-be1f-23c7d50b1556-attr-2-key" class="er entityLabel">FK</text><rect height="24" width="37.4693603515625" y="75.015625" x="0" class="er attributeBoxOdd"></rect><text style="dominant-baseline: middle; font-size: 10.2px;" transform="translate(5,87.015625)" y="0" x="0" id="text-entity-LOAN-d7d358ec-057c-581e-be1f-23c7d50b1556-attr-3-type" class="er entityLabel">float</text><rect height="24" width="96.84375" y="75.015625" x="37.4693603515625" class="er attributeBoxOdd"></rect><text style="dominant-baseline: middle; font-size: 10.2px;" transform="translate(42.4693603515625,87.015625)" y="0" x="0" id="text-entity-LOAN-d7d358ec-057c-581e-be1f-23c7d50b1556-attr-3-name" class="er entityLabel">JumlahPinjaman</text><rect height="24" width="23.12841796875" y="75.015625" x="134.3131103515625" class="er attributeBoxOdd"></rect><text style="dominant-baseline: middle; font-size: 10.2px;" transform="translate(139.3131103515625,87.015625)" y="0" x="0" id="text-entity-LOAN-d7d358ec-057c-581e-be1f-23c7d50b1556-attr-3-key" class="er entityLabel"></text><rect height="24" width="37.4693603515625" y="99.015625" x="0" class="er attributeBoxEven"></rect><text style="dominant-baseline: middle; font-size: 10.2px;" transform="translate(5,111.015625)" y="0" x="0" id="text-entity-LOAN-d7d358ec-057c-581e-be1f-23c7d50b1556-attr-4-type" class="er entityLabel">int</text><rect height="24" width="96.84375" y="99.015625" x="37.4693603515625" class="er attributeBoxEven"></rect><text style="dominant-baseline: middle; font-size: 10.2px;" transform="translate(42.4693603515625,111.015625)" y="0" x="0" id="text-entity-LOAN-d7d358ec-057c-581e-be1f-23c7d50b1556-attr-4-name" class="er entityLabel">Tenor</text><rect height="24" width="23.12841796875" y="99.015625" x="134.3131103515625" class="er attributeBoxEven"></rect><text style="dominant-baseline: middle; font-size: 10.2px;" transform="translate(139.3131103515625,111.015625)" y="0" x="0" id="text-entity-LOAN-d7d358ec-057c-581e-be1f-23c7d50b1556-attr-4-key" class="er entityLabel"></text><rect height="24" width="37.4693603515625" y="123.015625" x="0" class="er attributeBoxOdd"></rect><text style="dominant-baseline: middle; font-size: 10.2px;" transform="translate(5,135.015625)" y="0" x="0" id="text-entity-LOAN-d7d358ec-057c-581e-be1f-23c7d50b1556-attr-5-type" class="er entityLabel">string</text><rect height="24" width="96.84375" y="123.015625" x="37.4693603515625" class="er attributeBoxOdd"></rect><text style="dominant-baseline: middle; font-size: 10.2px;" transform="translate(42.4693603515625,135.015625)" y="0" x="0" id="text-entity-LOAN-d7d358ec-057c-581e-be1f-23c7d50b1556-attr-5-name" class="er entityLabel">StatusPinjaman</text><rect height="24" width="23.12841796875" y="123.015625" x="134.3131103515625" class="er attributeBoxOdd"></rect><text style="dominant-baseline: middle; font-size: 10.2px;" transform="translate(139.3131103515625,135.015625)" y="0" x="0" id="text-entity-LOAN-d7d358ec-057c-581e-be1f-23c7d50b1556-attr-5-key" class="er entityLabel"></text><rect height="24" width="37.4693603515625" y="147.015625" x="0" class="er attributeBoxEven"></rect><text style="dominant-baseline: middle; font-size: 10.2px;" transform="translate(5,159.015625)" y="0" x="0" id="text-entity-LOAN-d7d358ec-057c-581e-be1f-23c7d50b1556-attr-6-type" class="er entityLabel">date</text><rect height="24" width="96.84375" y="147.015625" x="37.4693603515625" class="er attributeBoxEven"></rect><text style="dominant-baseline: middle; font-size: 10.2px;" transform="translate(42.4693603515625,159.015625)" y="0" x="0" id="text-entity-LOAN-d7d358ec-057c-581e-be1f-23c7d50b1556-attr-6-name" class="er entityLabel">TanggalPengajuan</text><rect height="24" width="23.12841796875" y="147.015625" x="134.3131103515625" class="er attributeBoxEven"></rect><text style="dominant-baseline: middle; font-size: 10.2px;" transform="translate(139.3131103515625,159.015625)" y="0" x="0" id="text-entity-LOAN-d7d358ec-057c-581e-be1f-23c7d50b1556-attr-6-key" class="er entityLabel"></text></g><g transform="translate(258.1993408203125,586.03125 )" id="entity-PAYMENT-9797eee8-7a01-5efe-aaa5-fb9a4f14957c"><rect height="147.015625" width="167.4259033203125" y="0" x="0" class="er entityBox"></rect><text style="dominant-baseline: middle; text-anchor: middle; font-size: 12px;" transform="translate(83.71295166015625,13.5078125)" y="0" x="0" id="text-entity-PAYMENT-9797eee8-7a01-5efe-aaa5-fb9a4f14957c" class="er entityLabel">PAYMENT</text><rect height="24" width="37.4693603515625" y="27.015625" x="0" class="er attributeBoxOdd"></rect><text style="dominant-baseline: middle; font-size: 10.2px;" transform="translate(5,39.015625)" y="0" x="0" id="text-entity-PAYMENT-9797eee8-7a01-5efe-aaa5-fb9a4f14957c-attr-1-type" class="er entityLabel">string</text><rect height="24" width="106.828125" y="27.015625" x="37.4693603515625" class="er attributeBoxOdd"></rect><text style="dominant-baseline: middle; font-size: 10.2px;" transform="translate(42.4693603515625,39.015625)" y="0" x="0" id="text-entity-PAYMENT-9797eee8-7a01-5efe-aaa5-fb9a4f14957c-attr-1-name" class="er entityLabel">PaymentID</text><rect height="24" width="23.12841796875" y="27.015625" x="144.2974853515625" class="er attributeBoxOdd"></rect><text style="dominant-baseline: middle; font-size: 10.2px;" transform="translate(149.2974853515625,39.015625)" y="0" x="0" id="text-entity-PAYMENT-9797eee8-7a01-5efe-aaa5-fb9a4f14957c-attr-1-key" class="er entityLabel">PK</text><rect height="24" width="37.4693603515625" y="51.015625" x="0" class="er attributeBoxEven"></rect><text style="dominant-baseline: middle; font-size: 10.2px;" transform="translate(5,63.015625)" y="0" x="0" id="text-entity-PAYMENT-9797eee8-7a01-5efe-aaa5-fb9a4f14957c-attr-2-type" class="er entityLabel">string</text><rect height="24" width="106.828125" y="51.015625" x="37.4693603515625" class="er attributeBoxEven"></rect><text style="dominant-baseline: middle; font-size: 10.2px;" transform="translate(42.4693603515625,63.015625)" y="0" x="0" id="text-entity-PAYMENT-9797eee8-7a01-5efe-aaa5-fb9a4f14957c-attr-2-name" class="er entityLabel">LoanID</text><rect height="24" width="23.12841796875" y="51.015625" x="144.2974853515625" class="er attributeBoxEven"></rect><text style="dominant-baseline: middle; font-size: 10.2px;" transform="translate(149.2974853515625,63.015625)" y="0" x="0" id="text-entity-PAYMENT-9797eee8-7a01-5efe-aaa5-fb9a4f14957c-attr-2-key" class="er entityLabel">FK</text><rect height="24" width="37.4693603515625" y="75.015625" x="0" class="er attributeBoxOdd"></rect><text style="dominant-baseline: middle; font-size: 10.2px;" transform="translate(5,87.015625)" y="0" x="0" id="text-entity-PAYMENT-9797eee8-7a01-5efe-aaa5-fb9a4f14957c-attr-3-type" class="er entityLabel">float</text><rect height="24" width="106.828125" y="75.015625" x="37.4693603515625" class="er attributeBoxOdd"></rect><text style="dominant-baseline: middle; font-size: 10.2px;" transform="translate(42.4693603515625,87.015625)" y="0" x="0" id="text-entity-PAYMENT-9797eee8-7a01-5efe-aaa5-fb9a4f14957c-attr-3-name" class="er entityLabel">JumlahPembayaran</text><rect height="24" width="23.12841796875" y="75.015625" x="144.2974853515625" class="er attributeBoxOdd"></rect><text style="dominant-baseline: middle; font-size: 10.2px;" transform="translate(149.2974853515625,87.015625)" y="0" x="0" id="text-entity-PAYMENT-9797eee8-7a01-5efe-aaa5-fb9a4f14957c-attr-3-key" class="er entityLabel"></text><rect height="24" width="37.4693603515625" y="99.015625" x="0" class="er attributeBoxEven"></rect><text style="dominant-baseline: middle; font-size: 10.2px;" transform="translate(5,111.015625)" y="0" x="0" id="text-entity-PAYMENT-9797eee8-7a01-5efe-aaa5-fb9a4f14957c-attr-4-type" class="er entityLabel">date</text><rect height="24" width="106.828125" y="99.015625" x="37.4693603515625" class="er attributeBoxEven"></rect><text style="dominant-baseline: middle; font-size: 10.2px;" transform="translate(42.4693603515625,111.015625)" y="0" x="0" id="text-entity-PAYMENT-9797eee8-7a01-5efe-aaa5-fb9a4f14957c-attr-4-name" class="er entityLabel">TanggalPembayaran</text><rect height="24" width="23.12841796875" y="99.015625" x="144.2974853515625" class="er attributeBoxEven"></rect><text style="dominant-baseline: middle; font-size: 10.2px;" transform="translate(149.2974853515625,111.015625)" y="0" x="0" id="text-entity-PAYMENT-9797eee8-7a01-5efe-aaa5-fb9a4f14957c-attr-4-key" class="er entityLabel"></text><rect height="24" width="37.4693603515625" y="123.015625" x="0" class="er attributeBoxOdd"></rect><text style="dominant-baseline: middle; font-size: 10.2px;" transform="translate(5,135.015625)" y="0" x="0" id="text-entity-PAYMENT-9797eee8-7a01-5efe-aaa5-fb9a4f14957c-attr-5-type" class="er entityLabel">string</text><rect height="24" width="106.828125" y="123.015625" x="37.4693603515625" class="er attributeBoxOdd"></rect><text style="dominant-baseline: middle; font-size: 10.2px;" transform="translate(42.4693603515625,135.015625)" y="0" x="0" id="text-entity-PAYMENT-9797eee8-7a01-5efe-aaa5-fb9a4f14957c-attr-5-name" class="er entityLabel">StatusPembayaran</text><rect height="24" width="23.12841796875" y="123.015625" x="144.2974853515625" class="er attributeBoxOdd"></rect><text style="dominant-baseline: middle; font-size: 10.2px;" transform="translate(149.2974853515625,135.015625)" y="0" x="0" id="text-entity-PAYMENT-9797eee8-7a01-5efe-aaa5-fb9a4f14957c-attr-5-key" class="er entityLabel"></text></g><g transform="translate(520.633056640625,327.015625 )" id="entity-NOTIFICATION-5f6efb57-77a0-5636-b1c2-92f816a1abf8"><rect height="147.015625" width="151.8634033203125" y="0" x="0" class="er entityBox"></rect><text style="dominant-baseline: middle; text-anchor: middle; font-size: 12px;" transform="translate(75.93170166015625,13.5078125)" y="0" x="0" id="text-entity-NOTIFICATION-5f6efb57-77a0-5636-b1c2-92f816a1abf8" class="er entityLabel">NOTIFICATION</text><rect height="24" width="37.4693603515625" y="27.015625" x="0" class="er attributeBoxOdd"></rect><text style="dominant-baseline: middle; font-size: 10.2px;" transform="translate(5,39.015625)" y="0" x="0" id="text-entity-NOTIFICATION-5f6efb57-77a0-5636-b1c2-92f816a1abf8-attr-1-type" class="er entityLabel">string</text><rect height="24" width="91.265625" y="27.015625" x="37.4693603515625" class="er attributeBoxOdd"></rect><text style="dominant-baseline: middle; font-size: 10.2px;" transform="translate(42.4693603515625,39.015625)" y="0" x="0" id="text-entity-NOTIFICATION-5f6efb57-77a0-5636-b1c2-92f816a1abf8-attr-1-name" class="er entityLabel">NotificationID</text><rect height="24" width="23.12841796875" y="27.015625" x="128.7349853515625" class="er attributeBoxOdd"></rect><text style="dominant-baseline: middle; font-size: 10.2px;" transform="translate(133.7349853515625,39.015625)" y="0" x="0" id="text-entity-NOTIFICATION-5f6efb57-77a0-5636-b1c2-92f816a1abf8-attr-1-key" class="er entityLabel">PK</text><rect height="24" width="37.4693603515625" y="51.015625" x="0" class="er attributeBoxEven"></rect><text style="dominant-baseline: middle; font-size: 10.2px;" transform="translate(5,63.015625)" y="0" x="0" id="text-entity-NOTIFICATION-5f6efb57-77a0-5636-b1c2-92f816a1abf8-attr-2-type" class="er entityLabel">string</text><rect height="24" width="91.265625" y="51.015625" x="37.4693603515625" class="er attributeBoxEven"></rect><text style="dominant-baseline: middle; font-size: 10.2px;" transform="translate(42.4693603515625,63.015625)" y="0" x="0" id="text-entity-NOTIFICATION-5f6efb57-77a0-5636-b1c2-92f816a1abf8-attr-2-name" class="er entityLabel">UserID</text><rect height="24" width="23.12841796875" y="51.015625" x="128.7349853515625" class="er attributeBoxEven"></rect><text style="dominant-baseline: middle; font-size: 10.2px;" transform="translate(133.7349853515625,63.015625)" y="0" x="0" id="text-entity-NOTIFICATION-5f6efb57-77a0-5636-b1c2-92f816a1abf8-attr-2-key" class="er entityLabel">FK</text><rect height="24" width="37.4693603515625" y="75.015625" x="0" class="er attributeBoxOdd"></rect><text style="dominant-baseline: middle; font-size: 10.2px;" transform="translate(5,87.015625)" y="0" x="0" id="text-entity-NOTIFICATION-5f6efb57-77a0-5636-b1c2-92f816a1abf8-attr-3-type" class="er entityLabel">string</text><rect height="24" width="91.265625" y="75.015625" x="37.4693603515625" class="er attributeBoxOdd"></rect><text style="dominant-baseline: middle; font-size: 10.2px;" transform="translate(42.4693603515625,87.015625)" y="0" x="0" id="text-entity-NOTIFICATION-5f6efb57-77a0-5636-b1c2-92f816a1abf8-attr-3-name" class="er entityLabel">IsiNotifikasi</text><rect height="24" width="23.12841796875" y="75.015625" x="128.7349853515625" class="er attributeBoxOdd"></rect><text style="dominant-baseline: middle; font-size: 10.2px;" transform="translate(133.7349853515625,87.015625)" y="0" x="0" id="text-entity-NOTIFICATION-5f6efb57-77a0-5636-b1c2-92f816a1abf8-attr-3-key" class="er entityLabel"></text><rect height="24" width="37.4693603515625" y="99.015625" x="0" class="er attributeBoxEven"></rect><text style="dominant-baseline: middle; font-size: 10.2px;" transform="translate(5,111.015625)" y="0" x="0" id="text-entity-NOTIFICATION-5f6efb57-77a0-5636-b1c2-92f816a1abf8-attr-4-type" class="er entityLabel">string</text><rect height="24" width="91.265625" y="99.015625" x="37.4693603515625" class="er attributeBoxEven"></rect><text style="dominant-baseline: middle; font-size: 10.2px;" transform="translate(42.4693603515625,111.015625)" y="0" x="0" id="text-entity-NOTIFICATION-5f6efb57-77a0-5636-b1c2-92f816a1abf8-attr-4-name" class="er entityLabel">StatusNotifikasi</text><rect height="24" width="23.12841796875" y="99.015625" x="128.7349853515625" class="er attributeBoxEven"></rect><text style="dominant-baseline: middle; font-size: 10.2px;" transform="translate(133.7349853515625,111.015625)" y="0" x="0" id="text-entity-NOTIFICATION-5f6efb57-77a0-5636-b1c2-92f816a1abf8-attr-4-key" class="er entityLabel"></text><rect height="24" width="37.4693603515625" y="123.015625" x="0" class="er attributeBoxOdd"></rect><text style="dominant-baseline: middle; font-size: 10.2px;" transform="translate(5,135.015625)" y="0" x="0" id="text-entity-NOTIFICATION-5f6efb57-77a0-5636-b1c2-92f816a1abf8-attr-5-type" class="er entityLabel">date</text><rect height="24" width="91.265625" y="123.015625" x="37.4693603515625" class="er attributeBoxOdd"></rect><text style="dominant-baseline: middle; font-size: 10.2px;" transform="translate(42.4693603515625,135.015625)" y="0" x="0" id="text-entity-NOTIFICATION-5f6efb57-77a0-5636-b1c2-92f816a1abf8-attr-5-name" class="er entityLabel">TanggalNotifikasi</text><rect height="24" width="23.12841796875" y="123.015625" x="128.7349853515625" class="er attributeBoxOdd"></rect><text style="dominant-baseline: middle; font-size: 10.2px;" transform="translate(133.7349853515625,135.015625)" y="0" x="0" id="text-entity-NOTIFICATION-5f6efb57-77a0-5636-b1c2-92f816a1abf8-attr-5-key" class="er entityLabel"></text></g><rect height="17.015625" width="20.02734375" y="218.42559814453125" x="151.04779052734375" class="er relationshipLabelBox"></rect><text style="text-anchor: middle; dominant-baseline: middle; font-size: 12px;" y="226.93341064453125" x="161.06146240234375" id="rel203" class="er relationshipLabel">has</text><rect height="17.015625" width="20.02734375" y="256.5081787109375" x="331.8983154296875" class="er relationshipLabelBox"></rect><text style="text-anchor: middle; dominant-baseline: middle; font-size: 12px;" y="265.0159912109375" x="341.9119873046875" id="rel204" class="er relationshipLabel">has</text><rect height="17.015625" width="20.02734375" y="527.523193359375" x="331.8983154296875" class="er relationshipLabelBox"></rect><text style="text-anchor: middle; dominant-baseline: middle; font-size: 12px;" y="536.031005859375" x="341.9119873046875" id="rel205" class="er relationshipLabel">has</text><rect height="17.015625" width="45.890625" y="217.83071899414062" x="502.00128173828125" class="er relationshipLabelBox"></rect><text style="text-anchor: middle; dominant-baseline: middle; font-size: 12px;" y="226.33853149414062" x="524.9465942382812" id="rel206" class="er relationshipLabel">receives</text></svg>