<?xml version="1.0" encoding="us-ascii" standalone="no"?><svg xmlns="http://www.w3.org/2000/svg" xmlns:xlink="http://www.w3.org/1999/xlink" contentStyleType="text/css" height="501px" preserveAspectRatio="none" style="width:871px;height:501px;background:#FFFFFF;" version="1.1" viewBox="0 0 871 501" width="871px" zoomAndPan="magnify"><defs/><g><!--class Mobile_App--><g id="elem_Mobile_App"><rect codeLine="3" fill="#F1F1F1" height="64.4453" id="Mobile_App" rx="2.5" ry="2.5" style="stroke:#181818;stroke-width:0.5;" width="205" x="436" y="7"/><ellipse cx="491.75" cy="23" fill="#ADD1B2" rx="11" ry="11" style="stroke:#181818;stroke-width:1.0;"/><path d="M494.0938,18.6719 C493.1563,18.2344 492.5625,18.0938 491.6875,18.0938 C489.0625,18.0938 487.0625,20.1719 487.0625,22.8906 L487.0625,24.0156 C487.0625,26.5938 489.1719,28.4844 492.0625,28.4844 C493.2813,28.4844 494.4375,28.1875 495.1875,27.6406 C495.7656,27.2344 496.0938,26.7813 496.0938,26.3906 C496.0938,25.9375 495.7031,25.5469 495.2344,25.5469 C495.0156,25.5469 494.8125,25.625 494.625,25.8125 C494.1719,26.2969 494.1719,26.2969 493.9844,26.3906 C493.5625,26.6563 492.875,26.7813 492.1094,26.7813 C490.0625,26.7813 488.7656,25.6875 488.7656,23.9844 L488.7656,22.8906 C488.7656,21.1094 490.0156,19.7969 491.75,19.7969 C492.3281,19.7969 492.9375,19.9531 493.4063,20.2031 C493.8906,20.4844 494.0625,20.7031 494.1563,21.1094 C494.2188,21.5156 494.25,21.6406 494.3906,21.7656 C494.5313,21.9063 494.7656,22.0156 494.9844,22.0156 C495.25,22.0156 495.5156,21.875 495.6875,21.6563 C495.7969,21.5 495.8281,21.3125 495.8281,20.8906 L495.8281,19.4688 C495.8281,19.0313 495.8125,18.9063 495.7188,18.75 C495.5625,18.4844 495.2813,18.3438 494.9844,18.3438 C494.6875,18.3438 494.4844,18.4375 494.2656,18.75 L494.0938,18.6719 Z " fill="#000000"/><text fill="#000000" font-family="sans-serif" font-size="14" lengthAdjust="spacing" textLength="85" x="512.25" y="27.8467">Mobile_App</text><line style="stroke:#181818;stroke-width:0.5;" x1="437" x2="640" y1="39" y2="39"/><line style="stroke:#181818;stroke-width:1.0;stroke-dasharray:1.0,2.0;" x1="437" x2="440" y1="55.1484" y2="55.1484"/><text fill="#000000" font-family="sans-serif" font-size="14" lengthAdjust="spacing" textLength="197" x="440" y="59.4951">Mobile App (User Interface)</text><line style="stroke:#181818;stroke-width:1.0;stroke-dasharray:1.0,2.0;" x1="637" x2="640" y1="55.1484" y2="55.1484"/></g><!--class Authentication_Service--><g id="elem_Authentication_Service"><rect codeLine="7" fill="#F1F1F1" height="64.4453" id="Authentication_Service" rx="2.5" ry="2.5" style="stroke:#181818;stroke-width:0.5;" width="200" x="189.5" y="148"/><ellipse cx="204.5" cy="164" fill="#ADD1B2" rx="11" ry="11" style="stroke:#181818;stroke-width:1.0;"/><path d="M206.8438,159.6719 C205.9063,159.2344 205.3125,159.0938 204.4375,159.0938 C201.8125,159.0938 199.8125,161.1719 199.8125,163.8906 L199.8125,165.0156 C199.8125,167.5938 201.9219,169.4844 204.8125,169.4844 C206.0313,169.4844 207.1875,169.1875 207.9375,168.6406 C208.5156,168.2344 208.8438,167.7813 208.8438,167.3906 C208.8438,166.9375 208.4531,166.5469 207.9844,166.5469 C207.7656,166.5469 207.5625,166.625 207.375,166.8125 C206.9219,167.2969 206.9219,167.2969 206.7344,167.3906 C206.3125,167.6563 205.625,167.7813 204.8594,167.7813 C202.8125,167.7813 201.5156,166.6875 201.5156,164.9844 L201.5156,163.8906 C201.5156,162.1094 202.7656,160.7969 204.5,160.7969 C205.0781,160.7969 205.6875,160.9531 206.1563,161.2031 C206.6406,161.4844 206.8125,161.7031 206.9063,162.1094 C206.9688,162.5156 207,162.6406 207.1406,162.7656 C207.2813,162.9063 207.5156,163.0156 207.7344,163.0156 C208,163.0156 208.2656,162.875 208.4375,162.6563 C208.5469,162.5 208.5781,162.3125 208.5781,161.8906 L208.5781,160.4688 C208.5781,160.0313 208.5625,159.9063 208.4688,159.75 C208.3125,159.4844 208.0313,159.3438 207.7344,159.3438 C207.4375,159.3438 207.2344,159.4375 207.0156,159.75 L206.8438,159.6719 Z " fill="#000000"/><text fill="#000000" font-family="sans-serif" font-size="14" lengthAdjust="spacing" textLength="168" x="218.5" y="168.8467">Authentication_Service</text><line style="stroke:#181818;stroke-width:0.5;" x1="190.5" x2="388.5" y1="180" y2="180"/><line style="stroke:#181818;stroke-width:1.0;stroke-dasharray:1.0,2.0;" x1="190.5" x2="207" y1="196.1484" y2="196.1484"/><text fill="#000000" font-family="sans-serif" font-size="14" lengthAdjust="spacing" textLength="165" x="207" y="200.4951">Authentication Service</text><line style="stroke:#181818;stroke-width:1.0;stroke-dasharray:1.0,2.0;" x1="372" x2="388.5" y1="196.1484" y2="196.1484"/></g><!--class Loan_Management_Service--><g id="elem_Loan_Management_Service"><rect codeLine="11" fill="#F1F1F1" height="64.4453" id="Loan_Management_Service" rx="2.5" ry="2.5" style="stroke:#181818;stroke-width:0.5;" width="227" x="425" y="148"/><ellipse cx="440" cy="164" fill="#ADD1B2" rx="11" ry="11" style="stroke:#181818;stroke-width:1.0;"/><path d="M442.3438,159.6719 C441.4063,159.2344 440.8125,159.0938 439.9375,159.0938 C437.3125,159.0938 435.3125,161.1719 435.3125,163.8906 L435.3125,165.0156 C435.3125,167.5938 437.4219,169.4844 440.3125,169.4844 C441.5313,169.4844 442.6875,169.1875 443.4375,168.6406 C444.0156,168.2344 444.3438,167.7813 444.3438,167.3906 C444.3438,166.9375 443.9531,166.5469 443.4844,166.5469 C443.2656,166.5469 443.0625,166.625 442.875,166.8125 C442.4219,167.2969 442.4219,167.2969 442.2344,167.3906 C441.8125,167.6563 441.125,167.7813 440.3594,167.7813 C438.3125,167.7813 437.0156,166.6875 437.0156,164.9844 L437.0156,163.8906 C437.0156,162.1094 438.2656,160.7969 440,160.7969 C440.5781,160.7969 441.1875,160.9531 441.6563,161.2031 C442.1406,161.4844 442.3125,161.7031 442.4063,162.1094 C442.4688,162.5156 442.5,162.6406 442.6406,162.7656 C442.7813,162.9063 443.0156,163.0156 443.2344,163.0156 C443.5,163.0156 443.7656,162.875 443.9375,162.6563 C444.0469,162.5 444.0781,162.3125 444.0781,161.8906 L444.0781,160.4688 C444.0781,160.0313 444.0625,159.9063 443.9688,159.75 C443.8125,159.4844 443.5313,159.3438 443.2344,159.3438 C442.9375,159.3438 442.7344,159.4375 442.5156,159.75 L442.3438,159.6719 Z " fill="#000000"/><text fill="#000000" font-family="sans-serif" font-size="14" lengthAdjust="spacing" textLength="195" x="454" y="168.8467">Loan_Management_Service</text><line style="stroke:#181818;stroke-width:0.5;" x1="426" x2="651" y1="180" y2="180"/><line style="stroke:#181818;stroke-width:1.0;stroke-dasharray:1.0,2.0;" x1="426" x2="444" y1="196.1484" y2="196.1484"/><text fill="#000000" font-family="sans-serif" font-size="14" lengthAdjust="spacing" textLength="189" x="444" y="200.4951">Loan Management Service</text><line style="stroke:#181818;stroke-width:1.0;stroke-dasharray:1.0,2.0;" x1="633" x2="651" y1="196.1484" y2="196.1484"/></g><!--class Notification_Service--><g id="elem_Notification_Service"><rect codeLine="15" fill="#F1F1F1" height="64.4453" id="Notification_Service" rx="2.5" ry="2.5" style="stroke:#181818;stroke-width:0.5;" width="177" x="687" y="148"/><ellipse cx="702" cy="164" fill="#ADD1B2" rx="11" ry="11" style="stroke:#181818;stroke-width:1.0;"/><path d="M704.3438,159.6719 C703.4063,159.2344 702.8125,159.0938 701.9375,159.0938 C699.3125,159.0938 697.3125,161.1719 697.3125,163.8906 L697.3125,165.0156 C697.3125,167.5938 699.4219,169.4844 702.3125,169.4844 C703.5313,169.4844 704.6875,169.1875 705.4375,168.6406 C706.0156,168.2344 706.3438,167.7813 706.3438,167.3906 C706.3438,166.9375 705.9531,166.5469 705.4844,166.5469 C705.2656,166.5469 705.0625,166.625 704.875,166.8125 C704.4219,167.2969 704.4219,167.2969 704.2344,167.3906 C703.8125,167.6563 703.125,167.7813 702.3594,167.7813 C700.3125,167.7813 699.0156,166.6875 699.0156,164.9844 L699.0156,163.8906 C699.0156,162.1094 700.2656,160.7969 702,160.7969 C702.5781,160.7969 703.1875,160.9531 703.6563,161.2031 C704.1406,161.4844 704.3125,161.7031 704.4063,162.1094 C704.4688,162.5156 704.5,162.6406 704.6406,162.7656 C704.7813,162.9063 705.0156,163.0156 705.2344,163.0156 C705.5,163.0156 705.7656,162.875 705.9375,162.6563 C706.0469,162.5 706.0781,162.3125 706.0781,161.8906 L706.0781,160.4688 C706.0781,160.0313 706.0625,159.9063 705.9688,159.75 C705.8125,159.4844 705.5313,159.3438 705.2344,159.3438 C704.9375,159.3438 704.7344,159.4375 704.5156,159.75 L704.3438,159.6719 Z " fill="#000000"/><text fill="#000000" font-family="sans-serif" font-size="14" lengthAdjust="spacing" textLength="145" x="716" y="168.8467">Notification_Service</text><line style="stroke:#181818;stroke-width:0.5;" x1="688" x2="863" y1="180" y2="180"/><line style="stroke:#181818;stroke-width:1.0;stroke-dasharray:1.0,2.0;" x1="688" x2="704.5" y1="196.1484" y2="196.1484"/><text fill="#000000" font-family="sans-serif" font-size="14" lengthAdjust="spacing" textLength="142" x="704.5" y="200.4951">Notification Service</text><line style="stroke:#181818;stroke-width:1.0;stroke-dasharray:1.0,2.0;" x1="846.5" x2="863" y1="196.1484" y2="196.1484"/></g><!--class Database--><g id="elem_Database"><rect codeLine="19" fill="#F1F1F1" height="64.4453" id="Database" rx="2.5" ry="2.5" style="stroke:#181818;stroke-width:0.5;" width="100" x="588.5" y="289"/><ellipse cx="603.5" cy="305" fill="#ADD1B2" rx="11" ry="11" style="stroke:#181818;stroke-width:1.0;"/><path d="M605.8438,300.6719 C604.9063,300.2344 604.3125,300.0938 603.4375,300.0938 C600.8125,300.0938 598.8125,302.1719 598.8125,304.8906 L598.8125,306.0156 C598.8125,308.5938 600.9219,310.4844 603.8125,310.4844 C605.0313,310.4844 606.1875,310.1875 606.9375,309.6406 C607.5156,309.2344 607.8438,308.7813 607.8438,308.3906 C607.8438,307.9375 607.4531,307.5469 606.9844,307.5469 C606.7656,307.5469 606.5625,307.625 606.375,307.8125 C605.9219,308.2969 605.9219,308.2969 605.7344,308.3906 C605.3125,308.6563 604.625,308.7813 603.8594,308.7813 C601.8125,308.7813 600.5156,307.6875 600.5156,305.9844 L600.5156,304.8906 C600.5156,303.1094 601.7656,301.7969 603.5,301.7969 C604.0781,301.7969 604.6875,301.9531 605.1563,302.2031 C605.6406,302.4844 605.8125,302.7031 605.9063,303.1094 C605.9688,303.5156 606,303.6406 606.1406,303.7656 C606.2813,303.9063 606.5156,304.0156 606.7344,304.0156 C607,304.0156 607.2656,303.875 607.4375,303.6563 C607.5469,303.5 607.5781,303.3125 607.5781,302.8906 L607.5781,301.4688 C607.5781,301.0313 607.5625,300.9063 607.4688,300.75 C607.3125,300.4844 607.0313,300.3438 606.7344,300.3438 C606.4375,300.3438 606.2344,300.4375 606.0156,300.75 L605.8438,300.6719 Z " fill="#000000"/><text fill="#000000" font-family="sans-serif" font-size="14" lengthAdjust="spacing" textLength="68" x="617.5" y="309.8467">Database</text><line style="stroke:#181818;stroke-width:0.5;" x1="589.5" x2="687.5" y1="321" y2="321"/><line style="stroke:#181818;stroke-width:1.0;stroke-dasharray:1.0,2.0;" x1="589.5" x2="604.5" y1="337.1484" y2="337.1484"/><text fill="#000000" font-family="sans-serif" font-size="14" lengthAdjust="spacing" textLength="68" x="604.5" y="341.4951">Database</text><line style="stroke:#181818;stroke-width:1.0;stroke-dasharray:1.0,2.0;" x1="672.5" x2="687.5" y1="337.1484" y2="337.1484"/></g><!--class User_Profile--><g id="elem_User_Profile"><rect codeLine="23" fill="#F1F1F1" height="64.4453" id="User_Profile" rx="2.5" ry="2.5" style="stroke:#181818;stroke-width:0.5;" width="117" x="231" y="289"/><ellipse cx="246" cy="305" fill="#ADD1B2" rx="11" ry="11" style="stroke:#181818;stroke-width:1.0;"/><path d="M248.3438,300.6719 C247.4063,300.2344 246.8125,300.0938 245.9375,300.0938 C243.3125,300.0938 241.3125,302.1719 241.3125,304.8906 L241.3125,306.0156 C241.3125,308.5938 243.4219,310.4844 246.3125,310.4844 C247.5313,310.4844 248.6875,310.1875 249.4375,309.6406 C250.0156,309.2344 250.3438,308.7813 250.3438,308.3906 C250.3438,307.9375 249.9531,307.5469 249.4844,307.5469 C249.2656,307.5469 249.0625,307.625 248.875,307.8125 C248.4219,308.2969 248.4219,308.2969 248.2344,308.3906 C247.8125,308.6563 247.125,308.7813 246.3594,308.7813 C244.3125,308.7813 243.0156,307.6875 243.0156,305.9844 L243.0156,304.8906 C243.0156,303.1094 244.2656,301.7969 246,301.7969 C246.5781,301.7969 247.1875,301.9531 247.6563,302.2031 C248.1406,302.4844 248.3125,302.7031 248.4063,303.1094 C248.4688,303.5156 248.5,303.6406 248.6406,303.7656 C248.7813,303.9063 249.0156,304.0156 249.2344,304.0156 C249.5,304.0156 249.7656,303.875 249.9375,303.6563 C250.0469,303.5 250.0781,303.3125 250.0781,302.8906 L250.0781,301.4688 C250.0781,301.0313 250.0625,300.9063 249.9688,300.75 C249.8125,300.4844 249.5313,300.3438 249.2344,300.3438 C248.9375,300.3438 248.7344,300.4375 248.5156,300.75 L248.3438,300.6719 Z " fill="#000000"/><text fill="#000000" font-family="sans-serif" font-size="14" lengthAdjust="spacing" textLength="85" x="260" y="309.8467">User_Profile</text><line style="stroke:#181818;stroke-width:0.5;" x1="232" x2="347" y1="321" y2="321"/><line style="stroke:#181818;stroke-width:1.0;stroke-dasharray:1.0,2.0;" x1="232" x2="248.5" y1="337.1484" y2="337.1484"/><text fill="#000000" font-family="sans-serif" font-size="14" lengthAdjust="spacing" textLength="82" x="248.5" y="341.4951">User Profile</text><line style="stroke:#181818;stroke-width:1.0;stroke-dasharray:1.0,2.0;" x1="330.5" x2="347" y1="337.1484" y2="337.1484"/></g><!--class Personal_Information--><g id="elem_Personal_Information"><rect codeLine="27" fill="#F1F1F1" height="64.4453" id="Personal_Information" rx="2.5" ry="2.5" style="stroke:#181818;stroke-width:0.5;" width="185" x="7" y="430"/><ellipse cx="22" cy="446" fill="#ADD1B2" rx="11" ry="11" style="stroke:#181818;stroke-width:1.0;"/><path d="M24.3438,441.6719 C23.4063,441.2344 22.8125,441.0938 21.9375,441.0938 C19.3125,441.0938 17.3125,443.1719 17.3125,445.8906 L17.3125,447.0156 C17.3125,449.5938 19.4219,451.4844 22.3125,451.4844 C23.5313,451.4844 24.6875,451.1875 25.4375,450.6406 C26.0156,450.2344 26.3438,449.7813 26.3438,449.3906 C26.3438,448.9375 25.9531,448.5469 25.4844,448.5469 C25.2656,448.5469 25.0625,448.625 24.875,448.8125 C24.4219,449.2969 24.4219,449.2969 24.2344,449.3906 C23.8125,449.6563 23.125,449.7813 22.3594,449.7813 C20.3125,449.7813 19.0156,448.6875 19.0156,446.9844 L19.0156,445.8906 C19.0156,444.1094 20.2656,442.7969 22,442.7969 C22.5781,442.7969 23.1875,442.9531 23.6563,443.2031 C24.1406,443.4844 24.3125,443.7031 24.4063,444.1094 C24.4688,444.5156 24.5,444.6406 24.6406,444.7656 C24.7813,444.9063 25.0156,445.0156 25.2344,445.0156 C25.5,445.0156 25.7656,444.875 25.9375,444.6563 C26.0469,444.5 26.0781,444.3125 26.0781,443.8906 L26.0781,442.4688 C26.0781,442.0313 26.0625,441.9063 25.9688,441.75 C25.8125,441.4844 25.5313,441.3438 25.2344,441.3438 C24.9375,441.3438 24.7344,441.4375 24.5156,441.75 L24.3438,441.6719 Z " fill="#000000"/><text fill="#000000" font-family="sans-serif" font-size="14" lengthAdjust="spacing" textLength="153" x="36" y="450.8467">Personal_Information</text><line style="stroke:#181818;stroke-width:0.5;" x1="8" x2="191" y1="462" y2="462"/><line style="stroke:#181818;stroke-width:1.0;stroke-dasharray:1.0,2.0;" x1="8" x2="24.5" y1="478.1484" y2="478.1484"/><text fill="#000000" font-family="sans-serif" font-size="14" lengthAdjust="spacing" textLength="150" x="24.5" y="482.4951">Personal Information</text><line style="stroke:#181818;stroke-width:1.0;stroke-dasharray:1.0,2.0;" x1="174.5" x2="191" y1="478.1484" y2="478.1484"/></g><!--class Bank_Details--><g id="elem_Bank_Details"><rect codeLine="31" fill="#F1F1F1" height="64.4453" id="Bank_Details" rx="2.5" ry="2.5" style="stroke:#181818;stroke-width:0.5;" width="125" x="227" y="430"/><ellipse cx="242" cy="446" fill="#ADD1B2" rx="11" ry="11" style="stroke:#181818;stroke-width:1.0;"/><path d="M244.3438,441.6719 C243.4063,441.2344 242.8125,441.0938 241.9375,441.0938 C239.3125,441.0938 237.3125,443.1719 237.3125,445.8906 L237.3125,447.0156 C237.3125,449.5938 239.4219,451.4844 242.3125,451.4844 C243.5313,451.4844 244.6875,451.1875 245.4375,450.6406 C246.0156,450.2344 246.3438,449.7813 246.3438,449.3906 C246.3438,448.9375 245.9531,448.5469 245.4844,448.5469 C245.2656,448.5469 245.0625,448.625 244.875,448.8125 C244.4219,449.2969 244.4219,449.2969 244.2344,449.3906 C243.8125,449.6563 243.125,449.7813 242.3594,449.7813 C240.3125,449.7813 239.0156,448.6875 239.0156,446.9844 L239.0156,445.8906 C239.0156,444.1094 240.2656,442.7969 242,442.7969 C242.5781,442.7969 243.1875,442.9531 243.6563,443.2031 C244.1406,443.4844 244.3125,443.7031 244.4063,444.1094 C244.4688,444.5156 244.5,444.6406 244.6406,444.7656 C244.7813,444.9063 245.0156,445.0156 245.2344,445.0156 C245.5,445.0156 245.7656,444.875 245.9375,444.6563 C246.0469,444.5 246.0781,444.3125 246.0781,443.8906 L246.0781,442.4688 C246.0781,442.0313 246.0625,441.9063 245.9688,441.75 C245.8125,441.4844 245.5313,441.3438 245.2344,441.3438 C244.9375,441.3438 244.7344,441.4375 244.5156,441.75 L244.3438,441.6719 Z " fill="#000000"/><text fill="#000000" font-family="sans-serif" font-size="14" lengthAdjust="spacing" textLength="93" x="256" y="450.8467">Bank_Details</text><line style="stroke:#181818;stroke-width:0.5;" x1="228" x2="351" y1="462" y2="462"/><line style="stroke:#181818;stroke-width:1.0;stroke-dasharray:1.0,2.0;" x1="228" x2="244.5" y1="478.1484" y2="478.1484"/><text fill="#000000" font-family="sans-serif" font-size="14" lengthAdjust="spacing" textLength="90" x="244.5" y="482.4951">Bank Details</text><line style="stroke:#181818;stroke-width:1.0;stroke-dasharray:1.0,2.0;" x1="334.5" x2="351" y1="478.1484" y2="478.1484"/></g><!--class KYC_Requirements--><g id="elem_KYC_Requirements"><rect codeLine="35" fill="#F1F1F1" height="64.4453" id="KYC_Requirements" rx="2.5" ry="2.5" style="stroke:#181818;stroke-width:0.5;" width="169" x="387" y="430"/><ellipse cx="402" cy="446" fill="#ADD1B2" rx="11" ry="11" style="stroke:#181818;stroke-width:1.0;"/><path d="M404.3438,441.6719 C403.4063,441.2344 402.8125,441.0938 401.9375,441.0938 C399.3125,441.0938 397.3125,443.1719 397.3125,445.8906 L397.3125,447.0156 C397.3125,449.5938 399.4219,451.4844 402.3125,451.4844 C403.5313,451.4844 404.6875,451.1875 405.4375,450.6406 C406.0156,450.2344 406.3438,449.7813 406.3438,449.3906 C406.3438,448.9375 405.9531,448.5469 405.4844,448.5469 C405.2656,448.5469 405.0625,448.625 404.875,448.8125 C404.4219,449.2969 404.4219,449.2969 404.2344,449.3906 C403.8125,449.6563 403.125,449.7813 402.3594,449.7813 C400.3125,449.7813 399.0156,448.6875 399.0156,446.9844 L399.0156,445.8906 C399.0156,444.1094 400.2656,442.7969 402,442.7969 C402.5781,442.7969 403.1875,442.9531 403.6563,443.2031 C404.1406,443.4844 404.3125,443.7031 404.4063,444.1094 C404.4688,444.5156 404.5,444.6406 404.6406,444.7656 C404.7813,444.9063 405.0156,445.0156 405.2344,445.0156 C405.5,445.0156 405.7656,444.875 405.9375,444.6563 C406.0469,444.5 406.0781,444.3125 406.0781,443.8906 L406.0781,442.4688 C406.0781,442.0313 406.0625,441.9063 405.9688,441.75 C405.8125,441.4844 405.5313,441.3438 405.2344,441.3438 C404.9375,441.3438 404.7344,441.4375 404.5156,441.75 L404.3438,441.6719 Z " fill="#000000"/><text fill="#000000" font-family="sans-serif" font-size="14" lengthAdjust="spacing" textLength="137" x="416" y="450.8467">KYC_Requirements</text><line style="stroke:#181818;stroke-width:0.5;" x1="388" x2="555" y1="462" y2="462"/><line style="stroke:#181818;stroke-width:1.0;stroke-dasharray:1.0,2.0;" x1="388" x2="404.5" y1="478.1484" y2="478.1484"/><text fill="#000000" font-family="sans-serif" font-size="14" lengthAdjust="spacing" textLength="134" x="404.5" y="482.4951">KYC Requirements</text><line style="stroke:#181818;stroke-width:1.0;stroke-dasharray:1.0,2.0;" x1="538.5" x2="555" y1="478.1484" y2="478.1484"/></g><!--link Mobile_App to Authentication_Service--><g id="link_Mobile_App_Authentication_Service"><path codeLine="39" d="M482.929,71.021 C441.937,93.905 391.624,121.9915 350.57,144.9085 " fill="none" id="Mobile_App-to-Authentication_Service" style="stroke:#181818;stroke-width:1.0;"/><polygon fill="#181818" points="345.331,147.833,355.1392,146.9389,349.6968,145.3959,351.2399,139.9536,345.331,147.833" style="stroke:#181818;stroke-width:1.0;"/><text fill="#000000" font-family="sans-serif" font-size="13" lengthAdjust="spacing" textLength="89" x="430.5" y="114.0669">Authenticates</text></g><!--link Mobile_App to Loan_Management_Service--><g id="link_Mobile_App_Loan_Management_Service"><path codeLine="40" d="M538.5,71.194 C538.5,94.087 538.5,119.042 538.5,141.91 " fill="none" id="Mobile_App-to-Loan_Management_Service" style="stroke:#181818;stroke-width:1.0;"/><polygon fill="#181818" points="538.5,147.91,542.5,138.91,538.5,142.91,534.5,138.91,538.5,147.91" style="stroke:#181818;stroke-width:1.0;"/><text fill="#000000" font-family="sans-serif" font-size="13" lengthAdjust="spacing" textLength="102" x="539.5" y="114.0669">Requests Loans</text></g><!--link Loan_Management_Service to Database--><g id="link_Loan_Management_Service_Database"><path codeLine="41" d="M558.975,212.042 C568.642,226.461 580.459,243.75 591.5,259 C598.635,268.854 602.9679,274.6629 610.3179,284.1769 " fill="none" id="Loan_Management_Service-to-Database" style="stroke:#181818;stroke-width:1.0;"/><polygon fill="#181818" points="613.986,288.925,611.6492,279.3574,610.9292,284.9682,605.3184,284.2482,613.986,288.925" style="stroke:#181818;stroke-width:1.0;"/><text fill="#000000" font-family="sans-serif" font-size="13" lengthAdjust="spacing" textLength="120" x="592.5" y="255.0669">Stores &amp; Retrieves</text></g><!--link Mobile_App to Notification_Service--><g id="link_Mobile_App_Notification_Service"><path codeLine="42" d="M596.995,71.013 C614.337,80.434 633.29,90.955 650.5,101 C676.127,115.957 699.1249,130.1655 722.1599,144.7425 " fill="none" id="Mobile_App-to-Notification_Service" style="stroke:#181818;stroke-width:1.0;"/><polygon fill="#181818" points="727.23,147.951,721.7638,139.7583,723.0049,145.2773,717.4859,146.5184,727.23,147.951" style="stroke:#181818;stroke-width:1.0;"/><text fill="#000000" font-family="sans-serif" font-size="13" lengthAdjust="spacing" textLength="141" x="679.5" y="114.0669">Receives Notifications</text></g><!--link Notification_Service to Database--><g id="link_Notification_Service_Database"><path codeLine="43" d="M755.271,212.175 C744.865,227.11 731.452,244.792 717.5,259 C707.18,269.509 699.7516,276.0952 688.0896,285.1072 " fill="none" id="Notification_Service-to-Database" style="stroke:#181818;stroke-width:1.0;"/><polygon fill="#181818" points="683.342,288.776,692.9093,286.4379,687.2984,285.7187,688.0176,280.1077,683.342,288.776" style="stroke:#181818;stroke-width:1.0;"/><text fill="#000000" font-family="sans-serif" font-size="13" lengthAdjust="spacing" textLength="120" x="732.5" y="255.0669">Stores &amp; Retrieves</text></g><!--link User_Profile to Personal_Information--><g id="link_User_Profile_Personal_Information"><path codeLine="44" d="M246.86,353.194 C215.569,376.087 178.0975,403.4994 146.8395,426.3671 " fill="none" id="User_Profile-to-Personal_Information" style="stroke:#181818;stroke-width:1.0;"/><polygon fill="#181818" points="141.997,429.9098,151.6225,427.8241,146.0324,426.9576,146.8989,421.3675,141.997,429.9098" style="stroke:#181818;stroke-width:1.0;"/><text fill="#000000" font-family="sans-serif" font-size="13" lengthAdjust="spacing" textLength="52" x="207.5" y="396.0669">Includes</text></g><!--link User_Profile to Bank_Details--><g id="link_User_Profile_Bank_Details"><path codeLine="45" d="M289.5,353.194 C289.5,376.087 289.5,401.0421 289.5,423.9098 " fill="none" id="User_Profile-to-Bank_Details" style="stroke:#181818;stroke-width:1.0;"/><polygon fill="#181818" points="289.5,429.9098,293.5,420.9098,289.5,424.9098,285.5,420.9098,289.5,429.9098" style="stroke:#181818;stroke-width:1.0;"/><text fill="#000000" font-family="sans-serif" font-size="13" lengthAdjust="spacing" textLength="52" x="290.5" y="396.0669">Includes</text></g><!--link User_Profile to KYC_Requirements--><g id="link_User_Profile_KYC_Requirements"><path codeLine="46" d="M330.344,353.194 C360.318,376.087 396.0816,403.4003 426.0236,426.268 " fill="none" id="User_Profile-to-KYC_Requirements" style="stroke:#181818;stroke-width:1.0;"/><polygon fill="#181818" points="430.792,429.9098,426.0673,421.2682,426.8183,426.875,421.2116,427.6261,430.792,429.9098" style="stroke:#181818;stroke-width:1.0;"/><text fill="#000000" font-family="sans-serif" font-size="13" lengthAdjust="spacing" textLength="52" x="392.5" y="396.0669">Includes</text></g><!--link Authentication_Service to User_Profile--><g id="link_Authentication_Service_User_Profile"><path codeLine="47" d="M289.5,212.194 C289.5,235.087 289.5,260.042 289.5,282.91 " fill="none" id="Authentication_Service-to-User_Profile" style="stroke:#181818;stroke-width:1.0;"/><polygon fill="#181818" points="289.5,288.91,293.5,279.91,289.5,283.91,285.5,279.91,289.5,288.91" style="stroke:#181818;stroke-width:1.0;"/><text fill="#000000" font-family="sans-serif" font-size="13" lengthAdjust="spacing" textLength="49" x="290.5" y="255.0669">Links to</text></g><!--SRC=[XLAxJiCm5Dtp5PS5mT1-G0Qaq5Qe8gsg5WOcotLlm6fg5zlfWlXtx9GaTX93nlEwrZcvEM311S9sCNl9ra_v0bX9jKwI3bZ9FI-HPESpV2LWl-dq5mE7tRrgLB0K1bL16TvRElds_LbbFb0OpgZXKf0TgWjds6M5F3HyFoQNL90L5VGTJrO-p742w0JHeBKql8Y-ncUZ4NDgw9vgpzOYVQbhXsoKB5nVhRpkh47xbWqgBGKjoL8KKfskJscj3Gi-suzufE98vcWeBtLdTIWqQD_o_3OZM_oikAhhysoMWO2vMht_OZ9vYCsS-WJglYksQbfVH6slEObEOa8NqfQVmiv8XHfkhTqeZfVXnT7vtJc6tCe3NYUZwlzl1gix-UYcgTsGbTLXp10i-9Tmi9idZcpYR45E2ZaNHmr6_W00]--></g></svg>