<?xml version="1.0" encoding="us-ascii" standalone="no"?><svg xmlns="http://www.w3.org/2000/svg" xmlns:xlink="http://www.w3.org/1999/xlink" contentStyleType="text/css" height="463px" preserveAspectRatio="none" style="width:362px;height:463px;background:#FFFFFF;" version="1.1" viewBox="0 0 362 463" width="362px" zoomAndPan="magnify"><defs/><g><!--cluster API Aplikasi Pinjaman Online--><g id="cluster_API Aplikasi Pinjaman Online"><rect fill="none" height="450" rx="2.5" ry="2.5" style="stroke:#181818;stroke-width:1.0;" width="235.23" x="121" y="7"/><text fill="#000000" font-family="sans-serif" font-size="14" font-weight="bold" lengthAdjust="spacing" textLength="220" x="128.615" y="21.9951">API Aplikasi Pinjaman Online</text></g><g id="elem_UC1"><ellipse cx="238.1167" cy="212.0013" fill="#F1F1F1" rx="90.5567" ry="20.5113" style="stroke:#181818;stroke-width:0.5;"/><text fill="#000000" font-family="sans-serif" font-size="14" lengthAdjust="spacing" textLength="143" x="166.6167" y="214.848">Registrasi Pengguna</text></g><g id="elem_UC2"><ellipse cx="238.1236" cy="285.0007" fill="#F1F1F1" rx="77.3536" ry="17.8707" style="stroke:#181818;stroke-width:0.5;"/><text fill="#000000" font-family="sans-serif" font-size="14" lengthAdjust="spacing" textLength="112" x="179.4033" y="288.6754">Login Pengguna</text></g><g id="elem_UC3"><ellipse cx="238.1152" cy="353.999" fill="#F1F1F1" rx="69.6952" ry="16.339" style="stroke:#181818;stroke-width:0.5;"/><text fill="#000000" font-family="sans-serif" font-size="14" lengthAdjust="spacing" textLength="92" x="189.1152" y="357.7466">Verifikasi KYC</text></g><g id="elem_UC4"><ellipse cx="238.1236" cy="423.0007" fill="#F1F1F1" rx="77.3536" ry="17.8707" style="stroke:#181818;stroke-width:0.5;"/><text fill="#000000" font-family="sans-serif" font-size="14" lengthAdjust="spacing" textLength="112" x="179.4033" y="426.6754">Ajukan Pinjaman</text></g><g id="elem_UC5"><ellipse cx="238.1163" cy="63.0033" fill="#F1F1F1" rx="94.1163" ry="21.2233" style="stroke:#181818;stroke-width:0.5;"/><text fill="#000000" font-family="sans-serif" font-size="14" lengthAdjust="spacing" textLength="151" x="162.6163" y="65.8499">Pembayaran Pinjaman</text></g><g id="elem_UC6"><ellipse cx="238.1163" cy="137.9993" fill="#F1F1F1" rx="80.1963" ry="18.4393" style="stroke:#181818;stroke-width:0.5;"/><text fill="#000000" font-family="sans-serif" font-size="14" lengthAdjust="spacing" textLength="119" x="177.0239" y="141.3579">Manajemen Akun</text></g><!--entity Pengguna--><g id="elem_Pengguna"><ellipse cx="41.5" cy="216.35" fill="#F1F1F1" rx="8" ry="8" style="stroke:#181818;stroke-width:0.5;"/><path d="M41.5,224.35 L41.5,251.35 M28.5,232.35 L54.5,232.35 M41.5,251.35 L28.5,266.35 M41.5,251.35 L54.5,266.35 " fill="none" style="stroke:#181818;stroke-width:0.5;"/><text fill="#000000" font-family="sans-serif" font-size="14" lengthAdjust="spacing" textLength="71" x="6" y="280.8451">Pengguna</text></g><!--entity Sistem--><g id="elem_Sistem"><ellipse cx="41.5" cy="343.4969" fill="#F1F1F1" rx="8" ry="8" style="stroke:#181818;stroke-width:0.5;"/><path d="M41.5,351.4969 L41.5,378.4969 M28.5,359.4969 L54.5,359.4969 M41.5,378.4969 L28.5,393.4969 M41.5,378.4969 L54.5,393.4969 " fill="none" style="stroke:#181818;stroke-width:0.5;"/><text fill="#000000" font-family="sans-serif" font-size="14" lengthAdjust="spacing" textLength="47" x="18" y="407.992">Sistem</text><text fill="#000000" font-family="sans-serif" font-size="14" font-style="italic" lengthAdjust="spacing" textLength="68" x="7.5" y="331.6951">&#171;system&#187;</text></g><!--entity API--><g id="elem_API"><ellipse cx="41.5" cy="105.4969" fill="#F1F1F1" rx="8" ry="8" style="stroke:#181818;stroke-width:0.5;"/><path d="M41.5,113.4969 L41.5,140.4969 M28.5,121.4969 L54.5,121.4969 M41.5,140.4969 L28.5,155.4969 M41.5,140.4969 L54.5,155.4969 " fill="none" style="stroke:#181818;stroke-width:0.5;"/><text fill="#000000" font-family="sans-serif" font-size="14" lengthAdjust="spacing" textLength="21" x="31" y="169.992">API</text><text fill="#000000" font-family="sans-serif" font-size="14" font-style="italic" lengthAdjust="spacing" textLength="68" x="7.5" y="93.6951">&#171;system&#187;</text></g><!--link Pengguna to UC1--><g id="link_Pengguna_UC1"><path d="M77.29,239.92 C101.78,235.64 135.44,229.76 165.55,224.5 " fill="none" id="Pengguna-UC1" style="stroke:#181818;stroke-width:1.0;"/></g><!--link Pengguna to UC2--><g id="link_Pengguna_UC2"><path d="M77.29,252.97 C105.39,258.6 145.55,266.65 178.58,273.27 " fill="none" id="Pengguna-UC2" style="stroke:#181818;stroke-width:1.0;"/></g><!--link Pengguna to UC3--><g id="link_Pengguna_UC3"><path d="M71.82,284.43 C83.4,297.35 97.61,310.81 113,320 C133.04,331.97 157.4,339.84 179.22,344.95 " fill="none" id="Pengguna-UC3" style="stroke:#181818;stroke-width:1.0;"/></g><!--link Pengguna to UC4--><g id="link_Pengguna_UC4"><path d="M67.83,284.59 C71.06,290.02 74.21,295.59 77,301 C96.19,338.19 81.72,360.2 113,388 C128.31,401.61 148.53,409.96 168.2,415.08 " fill="none" id="Pengguna-UC4" style="stroke:#181818;stroke-width:1.0;"/></g><!--link Pengguna to UC5--><g id="link_Pengguna_UC5"><path d="M67.87,207.43 C71.09,202 74.23,196.42 77,191 C96.41,153 81.65,130.94 113,102 C126.36,89.67 143.59,81.23 160.94,75.47 " fill="none" id="Pengguna-UC5" style="stroke:#181818;stroke-width:1.0;"/></g><!--link Pengguna to UC6--><g id="link_Pengguna_UC6"><path d="M73.1,207.63 C84.51,195.42 98.29,182.8 113,174 C131.58,162.88 153.79,155.03 174.25,149.57 " fill="none" id="Pengguna-UC6" style="stroke:#181818;stroke-width:1.0;"/></g><!--link Sistem to UC1--><g id="link_Sistem_UC1"><path d="M69,318.34 C86.19,288.7 106.54,255 113,250 C128.14,238.27 146.92,230.14 165.23,224.51 " fill="none" id="Sistem-UC1" style="stroke:#181818;stroke-width:1.0;"/></g><!--link Sistem to UC2--><g id="link_Sistem_UC2"><path d="M75.79,340.92 C87.19,333.46 100.28,325.7 113,320 C134.25,310.47 158.71,302.91 180.28,297.29 " fill="none" id="Sistem-UC2" style="stroke:#181818;stroke-width:1.0;"/></g><!--link Sistem to UC3--><g id="link_Sistem_UC3"><path d="M75.96,363.11 C101.71,361.65 138.16,359.59 169.87,357.8 " fill="none" id="Sistem-UC3" style="stroke:#181818;stroke-width:1.0;"/></g><!--link Sistem to UC4--><g id="link_Sistem_UC4"><path d="M75.76,376.16 C87.5,380.01 100.81,384.29 113,388 C137.1,395.33 163.99,402.97 186.56,409.24 " fill="none" id="Sistem-UC4" style="stroke:#181818;stroke-width:1.0;"/></g><!--link Sistem to UC5--><g id="link_Sistem_UC5"><path d="M70.2,318.29 C72.75,312.91 75.09,307.41 77,302 C107.08,216.84 53.3,169.77 113,102 C124.65,88.78 140.72,80 157.44,74.17 " fill="none" id="Sistem-UC5" style="stroke:#181818;stroke-width:1.0;"/></g><!--link Sistem to UC6--><g id="link_Sistem_UC6"><path d="M69.51,318.44 C72.22,312.98 74.78,307.43 77,302 C99.34,247.29 71.38,215.96 113,174 C126.98,159.9 146.13,151.25 165.2,145.96 " fill="none" id="Sistem-UC6" style="stroke:#181818;stroke-width:1.0;"/></g><!--link API to UC1--><g id="link_API_UC1"><path d="M75.74,152.04 C87.13,159.83 100.24,167.95 113,174 C132.55,183.26 154.89,190.92 175.18,196.88 " fill="none" id="API-UC1" style="stroke:#181818;stroke-width:1.0;"/></g><!--link API to UC2--><g id="link_API_UC2"><path d="M68.21,173.74 C86.87,207.35 109.45,247.23 113,250 C129.42,262.81 150.28,270.93 170.2,276.08 " fill="none" id="API-UC2" style="stroke:#181818;stroke-width:1.0;"/></g><!--link API to UC3--><g id="link_API_UC3"><path d="M69.53,173.55 C72.24,179.01 74.8,184.57 77,190 C99.55,245.55 70.55,277.67 113,320 C128.5,335.46 150.33,344.07 171.36,348.8 " fill="none" id="API-UC3" style="stroke:#181818;stroke-width:1.0;"/></g><!--link API to UC4--><g id="link_API_UC4"><path d="M70.19,173.71 C72.74,179.09 75.08,184.59 77,190 C106.86,274.31 52.83,321.82 113,388 C126.56,402.91 145.92,411.66 165.33,416.74 " fill="none" id="API-UC4" style="stroke:#181818;stroke-width:1.0;"/></g><!--link API to UC5--><g id="link_API_UC5"><path d="M75.77,114.92 C87.5,110.74 100.81,106.08 113,102 C135.06,94.62 159.47,86.87 180.75,80.24 " fill="none" id="API-UC5" style="stroke:#181818;stroke-width:1.0;"/></g><!--link API to UC6--><g id="link_API_UC6"><path d="M75.96,128.89 C99,130.19 130.59,131.98 159.7,133.62 " fill="none" id="API-UC6" style="stroke:#181818;stroke-width:1.0;"/></g><!--SRC=[PP4zJyGm38Rt_0gh-mtqQpgTLDs40561G68qnPTBFroKfCC9yTzfZvGcONiVvv7jo3sTBDWHj99d2nzAKsFLo08REsgeYQMS61q-AsDfWFtUN9PmEBXwLT_wnQK7ikm9akMb-knLXqP1hRZ50HaUkLTC2Nm9WCbGWsPMdqZExVLLT6CJG0ClnnjVkn-bujX8VUELj3hzJhnxEpeZyusgdRfvZNKVf-I-KjFmZXVK_xN2rnwGiQM16AfkMerIV8jrGTZjhZy8EOquYpYFk8Yu5EuKhhjFQK1PG7b0HK2bM8xb6lx5T8lP5lCj5biiVm00]--></g></svg>